<svg width="90" height="90" viewBox="0 0 90 90" fill="none" xmlns="http://www.w3.org/2000/svg">
<path d="M80.9325 23.1975C80.07 19.9725 77.5275 17.43 74.3025 16.5675C68.4525 15 45 15 45 15C45 15 21.5475 15 15.6975 16.5675C12.4725 17.43 9.93 19.9725 9.0675 23.1975C7.5 29.0475 7.5 45 7.5 45C7.5 45 7.5 60.9525 9.0675 66.8025C9.93 70.0275 12.4725 72.57 15.6975 73.4325C21.5475 75 45 75 45 75C45 75 68.4525 75 74.3025 73.4325C77.5312 72.57 80.07 70.0275 80.9325 66.8025C82.5 60.9525 82.5 45 82.5 45C82.5 45 82.5 29.0475 80.9325 23.1975ZM37.5 54.7425V35.2575C37.5 33.8138 39.0637 32.9137 40.3125 33.6337L57.1875 43.3763C58.4363 44.0963 58.4363 45.9037 57.1875 46.6237L40.3125 56.3663C39.0637 57.09 37.5 56.1862 37.5 54.7425Z" fill="white"/>
</svg>
